<mxfile host="app.diagrams.net" modified="2021-03-20T13:36:47.440Z" agent="5.0 (X11; CrOS armv7l 13597.84.0) AppleWebKit/537.36 (KHTML, like Gecko) Chrome/88.0.4324.187 Safari/537.36" etag="smmyWLIrnvOmOsZ3HruW" version="14.4.9" type="github">
  <diagram id="aSU3PWzGkULYB8VGnYVQ" name="Page-1">
    <mxGraphModel dx="1662" dy="771" grid="1" gridSize="10" guides="1" tooltips="1" connect="1" arrows="1" fold="1" page="1" pageScale="1" pageWidth="850" pageHeight="1100" math="0" shadow="0">
      <root>
        <mxCell id="0" />
        <mxCell id="1" parent="0" />
        <mxCell id="RcjPFDO2JeCNxmXnWzHz-3" value="" style="ellipse;whiteSpace=wrap;html=1;aspect=fixed;" vertex="1" parent="1">
          <mxGeometry x="460" y="170" width="80" height="80" as="geometry" />
        </mxCell>
        <mxCell id="RcjPFDO2JeCNxmXnWzHz-5" style="edgeStyle=orthogonalEdgeStyle;rounded=0;orthogonalLoop=1;jettySize=auto;html=1;" edge="1" parent="1" source="RcjPFDO2JeCNxmXnWzHz-4" target="RcjPFDO2JeCNxmXnWzHz-3">
          <mxGeometry relative="1" as="geometry" />
        </mxCell>
        <mxCell id="RcjPFDO2JeCNxmXnWzHz-4" value="SZ" style="ellipse;whiteSpace=wrap;html=1;aspect=fixed;" vertex="1" parent="1">
          <mxGeometry x="190" y="170" width="80" height="80" as="geometry" />
        </mxCell>
      </root>
    </mxGraphModel>
  </diagram>
</mxfile>
